<svg xmlns="http://www.w3.org/2000/svg" width="499" height="499" viewBox="0 0 499 499" version="1.1"><path d="M 248.047 52.059 C 208.966 53.749, 189.794 56.360, 160.500 63.983 C 121.280 74.189, 101.240 80.125, 55.583 95.061 C 42.549 99.325, 36.303 102.943, 35.338 106.788 C 33.907 112.492, 37.127 143.213, 46.576 214 C 47.934 224.175, 49.473 235.200, 49.994 238.500 C 50.516 241.800, 51.649 249.675, 52.513 256 C 58.993 303.485, 75.942 406.154, 77.906 409.824 C 78.518 410.969, 84.788 414.005, 94.201 417.716 C 121.356 428.423, 143.953 435.546, 174.500 443.028 C 193.640 447.716, 202.229 448.885, 204.386 447.094 C 205.191 446.427, 206.916 446.192, 208.357 446.554 C 209.893 446.939, 212.179 446.558, 214.107 445.597 C 215.867 444.718, 218.026 443.998, 218.904 443.996 C 220.450 443.991, 286.326 411.479, 302.500 402.737 C 324.497 390.848, 329.800 387.916, 346 378.684 C 367.749 366.291, 371.862 363.493, 373.092 360.257 C 373.759 358.503, 373.588 353.228, 372.553 343.595 C 368.024 301.476, 367.532 299.091, 363.678 300.570 C 361.714 301.324, 361.580 304.362, 363.065 314.500 C 363.628 318.350, 364.970 329.600, 366.046 339.500 C 368.003 357.500, 368.003 357.500, 365.087 360.001 C 362.587 362.146, 331.764 380.005, 311 391.339 C 298.602 398.106, 279.413 408.023, 262.264 416.525 C 229.616 432.712, 220.499 436.997, 220.300 436.249 C 220.190 435.837, 218.954 427.175, 217.553 417 C 216.152 406.825, 214.342 394.225, 213.532 389 C 208.589 357.122, 203.635 326.083, 202.039 317 C 201.025 311.225, 199.215 300.875, 198.019 294 C 193.432 267.652, 190.868 255.455, 189.661 254.240 C 188.654 253.227, 188.060 253.235, 186.629 254.282 C 184.937 255.519, 185.023 256.520, 188.375 274.542 C 190.315 284.969, 192.346 296.200, 192.889 299.500 C 193.432 302.800, 195.910 317.650, 198.395 332.500 C 207.276 385.567, 214.337 434.521, 213.558 437.624 C 213.261 438.810, 212.392 440.019, 211.627 440.313 C 208.642 441.458, 167.155 432.173, 141.074 424.522 C 129.311 421.071, 101.795 411.665, 94.752 408.688 C 92.691 407.817, 90.559 406.068, 90.015 404.802 C 89.471 403.536, 87.462 394.625, 85.551 385 C 67.888 296.039, 53.616 210.177, 41.667 121 C 40.213 110.148, 40.591 107.543, 43.749 106.629 C 53.020 103.948, 150.076 103.157, 153.185 105.738 C 154.005 106.419, 155.175 109.344, 155.784 112.238 C 156.393 115.132, 158.687 125.825, 160.882 136 C 165.141 155.745, 172.116 189.457, 174.069 199.733 C 174.720 203.161, 175.814 206.431, 176.500 207 C 178.188 208.401, 181 207.190, 181 205.062 C 181 202.412, 166.255 130.983, 161.599 111.076 C 160.773 107.544, 160.300 104.324, 160.548 103.922 C 161.170 102.917, 222.659 82.557, 249.137 74.589 C 288.922 62.618, 311.901 56.673, 313.445 57.954 C 314.622 58.932, 319.368 77.330, 328.029 114.500 C 334.448 142.045, 343.293 186.371, 349.361 221.395 C 352.559 239.859, 353.891 245.535, 355.222 246.372 C 358.617 248.506, 359.369 245.954, 358.036 236.824 C 350.551 185.556, 323.434 60.588, 318.434 54.313 C 316.192 51.500, 316.192 51.500, 291.346 51.381 C 277.681 51.315, 258.196 51.620, 248.047 52.059 M 249 58.142 C 213.537 59.460, 193.667 62.049, 165.882 68.974 C 138.478 75.803, 123.828 79.896, 97.500 88.076 C 59.630 99.843, 57.895 98.522, 110.992 98.345 C 157.500 98.189, 157.500 98.189, 173.500 92.713 C 208.085 80.875, 240.962 70.433, 268.500 62.541 C 277.300 60.019, 284.950 57.776, 285.500 57.557 C 286.929 56.987, 274.891 57.180, 249 58.142 M 298.381 70.884 C 294.942 73.009, 292.992 77.376, 293.015 82.899 C 293.034 87.394, 294.192 89.301, 296.620 88.839 C 298.119 88.554, 298.560 87.443, 298.798 83.352 C 299.154 77.241, 301.855 73.805, 304.547 76.039 C 309.010 79.743, 310.362 88.097, 307.142 92.073 C 305.283 94.368, 305.283 94.368, 302.535 92.206 C 300.372 90.505, 299.370 90.267, 297.833 91.089 C 296.758 91.664, 296.022 92.876, 296.197 93.782 C 296.576 95.751, 302.592 100, 305 100 C 307.967 100, 313.431 95.614, 315.356 91.687 C 320.966 80.243, 308.318 64.743, 298.381 70.884 M 244.500 102.338 C 219.347 115.931, 213.718 160.352, 234.313 182.731 C 239.739 188.628, 244.491 191.572, 251.911 193.635 C 257.752 195.259, 258.110 195.244, 264.984 193.074 C 278.254 188.886, 286.407 180.524, 291.792 165.578 C 293.964 159.552, 294.345 156.790, 294.356 147 C 294.367 137.246, 293.989 134.436, 291.868 128.488 C 287.068 115.035, 278.972 105.440, 269.230 101.658 C 262.823 99.171, 249.693 99.532, 244.500 102.338 M 245.946 108.866 C 240.778 112.196, 237.202 115.971, 234.178 121.287 C 225.478 136.580, 225.629 159.523, 234.518 173.154 C 241.890 184.457, 253.763 190.797, 261.502 187.564 C 266.192 185.604, 273.452 178.675, 276.468 173.279 C 282.421 162.628, 284.657 146.909, 281.915 135 C 279.215 123.276, 270.870 112.114, 261.690 107.946 C 255.682 105.219, 251.198 105.480, 245.946 108.866 M 178.304 108.956 C 174.614 111.206, 172.665 116.349, 173.171 122.500 C 173.460 126.012, 173.805 126.500, 176 126.500 C 178.264 126.500, 178.549 126.029, 179.018 121.500 C 179.636 115.534, 180.465 114, 183.074 114 C 187.982 114, 191.086 126.802, 187.061 130.445 C 185.272 132.064, 184.946 132.076, 182.839 130.600 C 177.856 127.110, 174.419 130.070, 178.286 134.520 C 179.568 135.995, 182.013 137.308, 184.095 137.639 C 187.147 138.125, 188.239 137.729, 191.331 135.014 C 199.742 127.629, 197.762 113.519, 187.672 108.938 C 182.470 106.576, 182.207 106.577, 178.304 108.956 M 257.500 121.532 C 256.950 121.693, 255.271 122.096, 253.768 122.427 C 247.994 123.699, 239.124 134.553, 240.636 138.495 C 241.466 140.657, 245.177 140.025, 246.487 137.500 C 249.110 132.443, 251.417 130.051, 255.086 128.582 C 258.531 127.204, 259.487 127.177, 262.358 128.376 C 269.030 131.164, 272.617 139.101, 271.721 149.088 C 270.471 163.011, 260.592 170.707, 251.267 165.021 C 244.799 161.078, 242.562 166.456, 248.898 170.716 C 255.588 175.213, 265.052 173.262, 271.160 166.126 C 283.878 151.269, 278.083 124.656, 261.500 121.762 C 259.850 121.474, 258.050 121.371, 257.500 121.532 M 268.942 206.287 C 259.235 209.597, 251.585 214.634, 244.139 222.621 C 236.631 230.674, 232.088 237.765, 228.082 247.685 C 210.108 292.192, 225.661 346.773, 261.335 364.383 C 270.806 369.058, 277.389 370.357, 288.633 369.769 C 296.542 369.355, 298.915 368.785, 305.183 365.794 C 323.750 356.935, 336.770 339.541, 343.620 314.444 C 346.076 305.446, 346.334 302.882, 346.334 287.500 C 346.334 272.104, 346.077 269.557, 343.608 260.500 C 335.818 231.920, 317.775 210.689, 296.500 205.068 C 289.473 203.211, 276.249 203.796, 268.942 206.287 M 264.139 214.750 C 252.405 221.031, 243.194 230.929, 236.570 244.373 C 228.890 259.962, 227.500 266.572, 227.500 287.500 C 227.500 303.493, 227.763 306.392, 229.861 313.500 C 238.139 341.541, 257.927 361.668, 279.170 363.651 C 285.282 364.222, 286.155 364.035, 292.074 360.882 C 314.528 348.921, 329.215 320.088, 329.217 287.960 C 329.219 253.213, 311.200 222.842, 285.295 213.929 C 277.162 211.131, 270.410 211.393, 264.139 214.750 M 278.139 243.092 C 266.042 245.427, 254.715 258.590, 250.628 275.064 C 245.350 296.342, 252.985 319.207, 268.136 327.491 C 275.264 331.388, 285.024 331.636, 292.300 328.104 C 307.640 320.656, 317.275 300.692, 315.657 279.707 C 314.958 270.645, 313.335 266.500, 310.487 266.500 C 308.300 266.500, 308.334 265.927, 309.566 282 C 310.600 295.483, 306.981 306.726, 298.724 315.684 C 284.504 331.111, 266.030 326.310, 257.612 305 C 256.634 302.525, 255.591 296.675, 255.294 292 C 254.429 278.395, 258.447 265.811, 266.415 257.166 C 272.071 251.030, 277.157 248.636, 284.699 248.561 C 291.586 248.493, 294.435 246.945, 291.957 244.616 C 290.002 242.777, 283.489 242.059, 278.139 243.092 M 346.206 333.480 C 342.461 336.631, 340.778 340.696, 341.182 345.613 C 341.416 348.459, 341.998 349.578, 343.380 349.840 C 345.675 350.275, 346.964 348.431, 346.985 344.684 C 347.035 335.395, 354.812 336.152, 356.588 345.618 C 357.205 348.906, 354.648 356, 352.846 356 C 352.336 356, 350.606 355.029, 349.001 353.843 C 346.582 352.054, 345.820 351.904, 344.542 352.965 C 342.253 354.865, 342.649 356.527, 346.077 359.411 C 349.593 362.370, 352.798 362.673, 357.094 360.451 C 366.817 355.423, 366.146 338.176, 356.026 333.013 C 350.945 330.421, 349.775 330.477, 346.206 333.480 M 228.299 391.250 C 225.035 394.833, 224 397.543, 224 402.501 C 224 406.964, 224.100 407.121, 226.750 406.816 C 228.988 406.559, 229.554 405.942, 229.790 403.500 C 230.616 394.969, 234.499 392.490, 238.011 398.250 C 240.387 402.147, 240.540 406.055, 238.474 410.050 C 236.668 413.542, 234.807 413.782, 232.095 410.872 C 229.935 408.553, 227.363 408.891, 226.310 411.634 C 225.362 414.106, 231.209 419, 235.111 419 C 238.854 419, 243.506 415.857, 245.515 411.971 C 247.488 408.156, 247.399 400.643, 245.330 396.283 C 242.077 389.428, 232.529 386.606, 228.299 391.250" stroke="none" fill="#fffcfc" fill-rule="evenodd"/><path d="" stroke="none" fill="#fcfcfc" fill-rule="evenodd"/></svg>