<svg xmlns="http://www.w3.org/2000/svg" width="499" height="499"><path fill="#fffcfc" fill-rule="evenodd" d="M248.047 52.059c-39.081 1.69-58.253 4.301-87.547 11.924-39.22 10.206-59.26 16.142-104.917 31.078-13.034 4.264-19.28 7.882-20.245 11.727-1.431 5.704 1.789 36.425 11.238 107.212 1.358 10.175 2.897 21.2 3.418 24.5s1.655 11.175 2.519 17.5c6.48 47.485 23.429 150.154 25.393 153.824.612 1.145 6.882 4.181 16.295 7.892 27.155 10.707 49.752 17.83 80.299 25.312 19.14 4.688 27.729 5.857 29.886 4.066.805-.667 2.53-.902 3.971-.54 1.536.385 3.822.004 5.75-.957 1.76-.879 3.919-1.599 4.797-1.601 1.546-.005 67.422-32.517 83.596-41.259 21.997-11.889 27.3-14.821 43.5-24.053 21.749-12.393 25.862-15.191 27.092-18.427.667-1.754.496-7.029-.539-16.662-4.529-42.119-5.021-44.504-8.875-43.025-1.964.754-2.098 3.792-.613 13.93.563 3.85 1.905 15.1 2.981 25 1.957 18 1.957 18-.959 20.501-2.5 2.145-33.323 20.004-54.087 31.338-12.398 6.767-31.587 16.684-48.736 25.186-32.648 16.187-41.765 20.472-41.964 19.724-.11-.412-1.346-9.074-2.747-19.249s-3.211-22.775-4.021-28c-4.943-31.878-9.897-62.917-11.493-72-1.014-5.775-2.824-16.125-4.02-23-4.587-26.348-7.151-38.545-8.358-39.76-1.007-1.013-1.601-1.005-3.032.042-1.692 1.237-1.606 2.238 1.746 20.26 1.94 10.427 3.971 21.658 4.514 24.958s3.021 18.15 5.506 33c8.881 53.067 15.942 102.021 15.163 105.124-.297 1.186-1.166 2.395-1.931 2.689-2.985 1.145-44.472-8.14-70.553-15.791-11.763-3.451-39.279-12.857-46.322-15.834-2.061-.871-4.193-2.62-4.737-3.886S87.462 394.625 85.551 385c-17.663-88.961-31.935-174.823-43.884-264-1.454-10.852-1.076-13.457 2.082-14.371 9.271-2.681 106.327-3.472 109.436-.891.82.681 1.99 3.606 2.599 6.5s2.903 13.587 5.098 23.762c4.259 19.745 11.234 53.457 13.187 63.733.651 3.428 1.745 6.698 2.431 7.267 1.688 1.401 4.5.19 4.5-1.938 0-2.65-14.745-74.079-19.401-93.986-.826-3.532-1.299-6.752-1.051-7.154.622-1.005 62.111-21.365 88.589-29.333 39.785-11.971 62.764-17.916 64.308-16.635 1.177.978 5.923 19.376 14.584 56.546 6.419 27.545 15.264 71.871 21.332 106.895 3.198 18.464 4.53 24.14 5.861 24.977 3.395 2.134 4.147-.418 2.814-9.548-7.485-51.268-34.602-176.236-39.602-182.511-2.242-2.813-2.242-2.813-27.088-2.932-13.665-.066-33.15.239-43.299.678m.953 6.083c-35.463 1.318-55.333 3.907-83.118 10.832-27.404 6.829-42.054 10.922-68.382 19.102-37.87 11.767-39.605 10.446 13.492 10.269 46.508-.156 46.508-.156 62.508-5.632 34.585-11.838 67.462-22.28 95-30.172 8.8-2.522 16.45-4.765 17-4.984 1.429-.57-10.609-.377-36.5.585m49.381 12.742c-3.439 2.125-5.389 6.492-5.366 12.015.019 4.495 1.177 6.402 3.605 5.94 1.499-.285 1.94-1.396 2.178-5.487.356-6.111 3.057-9.547 5.749-7.313 4.463 3.704 5.815 12.058 2.595 16.034-1.859 2.295-1.859 2.295-4.607.133-2.163-1.701-3.165-1.939-4.702-1.117-1.075.575-1.811 1.787-1.636 2.693.379 1.969 6.395 6.218 8.803 6.218 2.967 0 8.431-4.386 10.356-8.313 5.61-11.444-7.038-26.944-16.975-20.803M244.5 102.338c-25.153 13.593-30.782 58.014-10.187 80.393 5.426 5.897 10.178 8.841 17.598 10.904 5.841 1.624 6.199 1.609 13.073-.561 13.27-4.188 21.423-12.55 26.808-27.496 2.172-6.026 2.553-8.788 2.564-18.578.011-9.754-.367-12.564-2.488-18.512-4.8-13.453-12.896-23.048-22.638-26.83-6.407-2.487-19.537-2.126-24.73.68m1.446 6.528c-5.168 3.33-8.744 7.105-11.768 12.421-8.7 15.293-8.549 38.236.34 51.867 7.372 11.303 19.245 17.643 26.984 14.41 4.69-1.96 11.95-8.889 14.966-14.285 5.953-10.651 8.189-26.37 5.447-38.279-2.7-11.724-11.045-22.886-20.225-27.054-6.008-2.727-10.492-2.466-15.744.92m-67.642.09c-3.69 2.25-5.639 7.393-5.133 13.544.289 3.512.634 4 2.829 4 2.264 0 2.549-.471 3.018-5 .618-5.966 1.447-7.5 4.056-7.5 4.908 0 8.012 12.802 3.987 16.445-1.789 1.619-2.115 1.631-4.222.155-4.983-3.49-8.42-.53-4.553 3.92 1.282 1.475 3.727 2.788 5.809 3.119 3.052.486 4.144.09 7.236-2.625 8.411-7.385 6.431-21.495-3.659-26.076-5.202-2.362-5.465-2.361-9.368.018m79.196 12.576c-.55.161-2.229.564-3.732.895-5.774 1.272-14.644 12.126-13.132 16.068.83 2.162 4.541 1.53 5.851-.995 2.623-5.057 4.93-7.449 8.599-8.918 3.445-1.378 4.401-1.405 7.272-.206 6.672 2.788 10.259 10.725 9.363 20.712-1.25 13.923-11.129 21.619-20.454 15.933-6.468-3.943-8.705 1.435-2.369 5.695 6.69 4.497 16.154 2.546 22.262-4.59 12.718-14.857 6.923-41.47-9.66-44.364-1.65-.288-3.45-.391-4-.23m11.442 84.755c-9.707 3.31-17.357 8.347-24.803 16.334-7.508 8.053-12.051 15.144-16.057 25.064-17.974 44.507-2.421 99.088 33.253 116.698 9.471 4.675 16.054 5.974 27.298 5.386 7.909-.414 10.282-.984 16.55-3.975 18.567-8.859 31.587-26.253 38.437-51.35 2.456-8.998 2.714-11.562 2.714-26.944 0-15.396-.257-17.943-2.726-27-7.79-28.58-25.833-49.811-47.108-55.432-7.027-1.857-20.251-1.272-27.558 1.219m-4.803 8.463c-11.734 6.281-20.945 16.179-27.569 29.623-7.68 15.589-9.07 22.199-9.07 43.127 0 15.993.263 18.892 2.361 26 8.278 28.041 28.066 48.168 49.309 50.151 6.112.571 6.985.384 12.904-2.769 22.454-11.961 37.141-40.794 37.143-72.922.002-34.747-18.017-65.118-43.922-74.031-8.133-2.798-14.885-2.536-21.156.821m14 28.342c-12.097 2.335-23.424 15.498-27.511 31.972-5.278 21.278 2.357 44.143 17.508 52.427 7.128 3.897 16.888 4.145 24.164.613 15.34-7.448 24.975-27.412 23.357-48.397-.699-9.062-2.322-13.207-5.17-13.207-2.187 0-2.153-.573-.921 15.5 1.034 13.483-2.585 24.726-10.842 33.684-14.22 15.427-32.694 10.626-41.112-10.684-.978-2.475-2.021-8.325-2.318-13-.865-13.605 3.153-26.189 11.121-34.834 5.656-6.136 10.742-8.53 18.284-8.605 6.887-.068 9.736-1.616 7.258-3.945-1.955-1.839-8.468-2.557-13.818-1.524m68.067 90.388c-3.745 3.151-5.428 7.216-5.024 12.133.234 2.846.816 3.965 2.198 4.227 2.295.435 3.584-1.409 3.605-5.156.05-9.289 7.827-8.532 9.603.934.617 3.288-1.94 10.382-3.742 10.382-.51 0-2.24-.971-3.845-2.157-2.419-1.789-3.181-1.939-4.459-.878-2.289 1.9-1.893 3.562 1.535 6.446 3.516 2.959 6.721 3.262 11.017 1.04 9.723-5.028 9.052-22.275-1.068-27.438-5.081-2.592-6.251-2.536-9.82.467m-117.907 57.77c-3.264 3.583-4.299 6.293-4.299 11.251 0 4.463.1 4.62 2.75 4.315 2.238-.257 2.804-.874 3.04-3.316.826-8.531 4.709-11.01 8.221-5.25 2.376 3.897 2.529 7.805.463 11.8-1.806 3.492-3.667 3.732-6.379.822-2.16-2.319-4.732-1.981-5.785.762-.948 2.472 4.899 7.366 8.801 7.366 3.743 0 8.395-3.143 10.404-7.029 1.973-3.815 1.884-11.328-.185-15.688-3.253-6.855-12.801-9.677-17.031-5.033"/></svg>