<svg xmlns="http://www.w3.org/2000/svg" width="50" height="50" fill="#FFF" viewBox="0 0 24 24"><path stroke="#FFF" stroke-linecap="round" stroke-linejoin="round" stroke-width="2" d="M12.5 8.89v9.61m0-9.61V5.577c0-.208 0-.311.035-.4a.5.5 0 0 1 .144-.2c.073-.061.171-.094.368-.16l4.4-1.466c.355-.119.533-.178.675-.142a.5.5 0 0 1 .3.216c.078.123.078.31.078.685v3.313c0 .208 0 .311-.035.4a.5.5 0 0 1-.144.2c-.073.06-.171.094-.368.16l-4.4 1.466c-.356.118-.533.178-.675.142a.5.5 0 0 1-.3-.216c-.078-.123-.078-.31-.078-.685m0 9.61c0 1.38-1.567 2.5-3.5 2.5s-3.5-1.12-3.5-2.5S7.067 16 9 16s3.5 1.12 3.5 2.5"/></svg>